<?xml version="1.0" encoding="UTF-8" standalone="no"?>
<!-- Created with Inkscape (http://www.inkscape.org/) -->

<svg
   version="1.1"
   id="svg2"
   width="2666.6667"
   height="2666.6667"
   viewBox="0 0 2666.6667 2666.6667"
   sodipodi:docname="20220825p1_cat_freepik.eps"
   xmlns:inkscape="http://www.inkscape.org/namespaces/inkscape"
   xmlns:sodipodi="http://sodipodi.sourceforge.net/DTD/sodipodi-0.dtd"
   xmlns="http://www.w3.org/2000/svg"
   xmlns:svg="http://www.w3.org/2000/svg">
  <defs
     id="defs6" />
  <sodipodi:namedview
     id="namedview4"
     pagecolor="#ffffff"
     bordercolor="#000000"
     borderopacity="0.25"
     inkscape:showpageshadow="2"
     inkscape:pageopacity="0.0"
     inkscape:pagecheckerboard="0"
     inkscape:deskcolor="#d1d1d1" />
  <g
     id="g8"
     inkscape:groupmode="layer"
     inkscape:label="ink_ext_XXXXXX"
     transform="matrix(1.3333333,0,0,-1.3333333,0,2666.6667)">
    <g
       id="g10"
       transform="scale(0.1)">
      <path
         d="M 20000,0 H 0 V 20000 H 20000 V 0"
         style="fill:#ffffff;fill-opacity:1;fill-rule:nonzero;stroke:none"
         id="path12" />
      <path
         d="m 13476.2,6489.7 c 0,0 -758.9,1570.9 -1988,1823.6 C 10259.1,8566 6370,8470.6 5803.33,6480.1 c 0,0 2848.91,-16.6 4060,11.1 1211.07,27.6 3612.87,-1.5 3612.87,-1.5"
         style="fill:#f7a447;fill-opacity:1;fill-rule:nonzero;stroke:none"
         id="path14" />
      <path
         d="m 7777.86,7752.7 c 0,0 490.26,-393.6 248.76,-961.2 -225.36,-529.6 485.89,-288.3 1162.35,-267.8 827.73,25 2431.03,-348.4 2263.93,221 -156.1,532 1028,1283.8 1028,1283.8 L 7777.86,7752.7"
         style="fill:#f9d883;fill-opacity:1;fill-rule:nonzero;stroke:none"
         id="path16" />
      <path
         d="m 9193.85,12915.8 c 0,0 -979.18,584.7 -1459.82,593 -480.64,8.3 -218.32,-1688.3 -411.63,-2190.8"
         style="fill:#f7a447;fill-opacity:1;fill-rule:nonzero;stroke:none"
         id="path18" />
      <path
         d="m 7322.38,11228.8 c -10.65,0 -21.48,1.9 -32.02,6 -45.99,17.6 -68.92,69.3 -51.23,115.3 68.16,177.1 75.67,547.5 82.93,905.6 6.27,309 12.75,628.5 55.93,873 20.71,117.3 83.67,474.6 357.58,469.3 498.69,-8.6 1463.2,-581.2 1504.02,-605.6 42.31,-25.2 56.12,-80 30.86,-122.3 -25.25,-42.3 -80.03,-56.1 -122.33,-30.8 -9.59,5.7 -964.31,572.5 -1415.63,580.3 -0.54,0 -1.1,0 -1.64,0 -206.73,0 -220.4,-674.6 -230.4,-1167.5 -7.92,-390.7 -15.4,-759.8 -94.79,-966.1 -13.63,-35.5 -47.45,-57.2 -83.28,-57.2"
         style="fill:#62312d;fill-opacity:1;fill-rule:nonzero;stroke:none"
         id="path20" />
      <path
         d="m 8591.4,12623.3 c 0,0 -863.77,-821.3 -969.24,-1194.5 0,0 -169.38,1675.6 81.13,1841.7 250.51,166.2 680.89,-345.1 888.11,-647.2"
         style="fill:#f57385;fill-opacity:1;fill-rule:nonzero;stroke:none"
         id="path22" />
      <path
         d="m 7882.04,7481.6 c 0,0 -1159.02,433.5 -1266.75,1999.7 -107.73,1566.3 878.42,1823.2 1110.45,2254.1 232.04,430.9 1359.06,2063.4 3944.56,812.1 2585.6,-1251.3 2751.3,-3936.3 1831.5,-4773.3 0,0 -705.2,-723.7 -1810.5,-753.4"
         style="fill:#f9d883;fill-opacity:1;fill-rule:nonzero;stroke:none"
         id="path24" />
      <path
         d="m 11670.3,12547.5 c -2585.5,1251.3 -3712.52,-381.2 -3944.56,-812.1 -178.9,-332.2 -805.95,-561.2 -1034.45,-1366.4 177.56,-204.1 411.54,-335.6 697.94,-168.8 654.67,381.2 1275.13,-58 1474.55,248.6 199.41,306.6 437.77,1198.6 1085.41,1096.2 558.21,-88.2 214.81,-1299.5 637.41,-1563.4 422.7,-263.8 581.5,-716.6 995.8,-582 414.4,134.5 1284.5,-442.4 1185.1,-807.1 -66.2,-242.7 499.2,-419.2 994.6,-378.2 110.1,186.7 189.1,412.2 231.9,662.9 131.8,1160.1 -481.8,2778.9 -2323.7,3670.3"
         style="fill:#f7a447;fill-opacity:1;fill-rule:nonzero;stroke:none"
         id="path26" />
      <path
         d="m 7122.82,11084 -113.9,-174.9 c 0,0 156.25,-177.2 291.29,-199.4 135.04,-22.2 -172.91,174.4 -177.39,374.3"
         style="fill:#906223;fill-opacity:1;fill-rule:nonzero;stroke:none"
         id="path28" />
      <path
         d="m 9642,13020.9 c -46.74,-16.5 -208.55,-517.3 -227.8,-891.2 -19.25,-374 237.64,767.4 426.36,891.2 H 9642"
         style="fill:#906223;fill-opacity:1;fill-rule:nonzero;stroke:none"
         id="path30" />
      <path
         d="m 10149.5,13000.8 c 0,0 -367.69,-585.5 -367.69,-1209.8 0,-624.3 495.09,1179.6 681.79,1209.8 h -314.1"
         style="fill:#906223;fill-opacity:1;fill-rule:nonzero;stroke:none"
         id="path32" />
      <path
         d="m 11034.2,12845.3 -257.1,82.3 c 0,0 -348.8,-540.9 -381.4,-1008.3 -32.6,-467.4 344.7,910.6 638.5,926"
         style="fill:#906223;fill-opacity:1;fill-rule:nonzero;stroke:none"
         id="path34" />
      <path
         d="m 6909.48,10775.6 -79.77,-195.2 c 0,0 145.39,-141 337.04,-123.1 191.64,17.9 -313.36,138.5 -257.27,318.3"
         style="fill:#906223;fill-opacity:1;fill-rule:nonzero;stroke:none"
         id="path36" />
      <path
         d="m 13913,9925.7 54.7,-242.4 c 0,0 -415.7,-234.5 -783.6,-260.1 -367.8,-25.7 716.7,271.2 728.9,502.5"
         style="fill:#906223;fill-opacity:1;fill-rule:nonzero;stroke:none"
         id="path38" />
      <path
         d="m 14031.9,9416.8 13,-247.4 c 0,0 -589.1,-94.3 -1031.8,25 -442.7,119.4 931.8,7.6 1018.8,222.4"
         style="fill:#906223;fill-opacity:1;fill-rule:nonzero;stroke:none"
         id="path40" />
      <path
         d="m 11691.3,6931.6 c -48.2,0 -87.9,38.3 -89.2,86.8 -1.3,49.2 37.5,90.2 86.8,91.5 1053.8,28.4 1742.2,719.7 1749,726.6 1.2,1.3 2.5,2.5 3.8,3.7 384.6,349.9 556.8,1028.2 449.4,1770.1 -82.5,570.1 -467.9,1989.8 -2259.6,2856.9 -2574.9,1246.2 -3639.88,-426.2 -3827.22,-774.1 -70.1,-130.2 -193.02,-238.7 -335.34,-364.2 -354.64,-312.8 -840.32,-741.3 -764.65,-1841.4 102.61,-1491.7 1197.95,-1918.3 1209.01,-1922.4 46.15,-17.2 69.56,-68.7 52.3,-114.8 -17.26,-46.1 -68.65,-69.6 -114.82,-52.3 -12.58,4.7 -311.56,118.8 -624.9,433.1 -287.4,288.3 -642.06,807.6 -699.59,1644.1 -81.72,1188 442.12,1650.1 824.61,1987.5 129.48,114.2 241.3,212.9 296.29,315 90.5,168.1 439.44,742.3 1129.55,1075 820.46,395.4 1807.06,319.8 2932.46,-224.9 701.4,-339.4 1267.7,-799.9 1683.2,-1368.4 359.2,-491.5 592.7,-1052.9 675.3,-1623.5 115.6,-798.6 -77.5,-1536.2 -504,-1926 -51,-51.6 -759.7,-748.4 -1870,-778.3 -0.8,0 -1.6,0 -2.4,0"
         style="fill:#62312d;fill-opacity:1;fill-rule:nonzero;stroke:none"
         id="path42" />
      <path
         d="m 11691.3,12464 c 0,0 1349.7,552.1 1856.9,231.6 507.2,-320.5 167.6,-2143.2 271.8,-2522.8"
         style="fill:#f7a447;fill-opacity:1;fill-rule:nonzero;stroke:none"
         id="path44" />
      <path
         d="m 13819.9,10083.5 c -39.2,0 -75.1,26 -86,65.6 -37.6,137.5 -24.6,411 -8.1,757.2 28.9,607.5 72.6,1525.6 -225.3,1713.9 -384.2,242.8 -1411.9,-90 -1775.4,-238.7 -45.7,-18.7 -97.7,3.2 -116.4,48.8 -18.6,45.6 3.2,97.7 48.8,116.3 56.9,23.3 1398.4,565.6 1938.3,224.4 385.8,-243.8 342.8,-1147.2 308.2,-1873.1 -14.5,-304.2 -28.2,-591.5 2,-701.5 13.1,-47.6 -14.9,-96.7 -62.4,-109.7 -7.9,-2.1 -15.8,-3.2 -23.7,-3.2"
         style="fill:#62312d;fill-opacity:1;fill-rule:nonzero;stroke:none"
         id="path46" />
      <path
         d="m 13183.7,10823.8 c -24.8,24.9 -588.7,956.5 -1185.3,1180.2 0,0 649.8,673.1 1155.3,409.4 505.5,-263.7 30,-1589.6 30,-1589.6"
         style="fill:#f57385;fill-opacity:1;fill-rule:nonzero;stroke:none"
         id="path48" />
      <path
         d="m 7956.75,7393.1 c 0,0 -396.51,602.5 -466.68,1360.4 -70.17,757.8 -133.33,701.7 -238.58,785.9 -105.26,84.2 -14.03,301.7 -442.08,315.7 0,0 -315.76,245.6 -596.44,-63.1 0,0 -273.67,42.1 -385.94,-294.7 0,0 -287.7,-112.3 -126.31,-722.8 161.39,-610.5 70.17,-1073.6 315.77,-1866.5 0,0 -141.64,-156.9 -203.66,-416.8"
         style="fill:#f7a447;fill-opacity:1;fill-rule:nonzero;stroke:none"
         id="path50" />
      <path
         d="m 5818.41,8139.1 c 0,0 665.08,85.9 633.23,-52.9 -31.85,-138.7 -600.18,-284.1 -600.18,-284.1 l -33.05,337"
         style="fill:#91602a;fill-opacity:1;fill-rule:nonzero;stroke:none"
         id="path52" />
      <path
         d="m 5877.36,7580.9 c 0,0 245.05,220.4 383.83,194.4 138.78,-26.1 -347.51,-391.2 -347.51,-391.2"
         style="fill:#91602a;fill-opacity:1;fill-rule:nonzero;stroke:none"
         id="path54" />
      <path
         d="m 7516.82,8344 c 0,0 -218.08,-56.1 -218.08,-130.5 0,-74.4 285.63,-48.1 285.63,-48.1 l -67.55,178.6"
         style="fill:#91602a;fill-opacity:1;fill-rule:nonzero;stroke:none"
         id="path56" />
      <path
         d="m 7688.65,7828.5 c 0,0 -429.56,-40.4 -389.91,-132.6 39.65,-92.1 502.25,-26 502.25,-26 l -112.34,158.6"
         style="fill:#91602a;fill-opacity:1;fill-rule:nonzero;stroke:none"
         id="path58" />
      <path
         d="m 8031.27,7442.2 c -3.85,5.8 -385.03,592.3 -452.36,1319.5 -62.77,677.8 -122.54,746.1 -241.1,825.5 -10.66,7.2 -20.72,13.9 -30.59,21.8 -12.05,9.7 -21.51,34.1 -32.47,62.5 -49.59,128.3 -124.43,254.5 -434.81,271.6 -137.93,93 -418.43,177.7 -662.55,-59.6 -125.89,-0.9 -324.05,-68.5 -423.32,-325.5 -89.66,-60.5 -283.94,-260.3 -139.6,-806.3 68.85,-260.4 90.62,-495 113.68,-743.4 29.66,-319.5 60.29,-649.5 189.29,-1081.3 -53.39,-71.4 -156.35,-232.6 -200.93,-458.1 4.4,-3 8.62,-6.2 12.67,-9.6 21.23,13.2 46.31,20.8 74.15,20.8 14.56,0 28.96,-2.5 42.78,-7 13.9,4.5 28.64,7 43.89,7 3.8,0 7.55,-0.2 11.29,-0.5 55.2,223.7 173.87,360.1 181.41,368.6 21.1,23.3 28.33,56.1 19.01,86.2 -135.19,436.5 -166.05,768.9 -195.9,1090.4 -23.75,256 -46.2,497.8 -118.83,772.5 -130.9,495.1 57.92,608.8 73.78,617.3 26.18,8.9 42.08,28 50.9,54.5 84.44,253.2 268.11,237.2 287.74,234.7 29.55,-4.5 59.46,6 79.58,28.2 216.52,238.1 450.11,72.1 475.66,52.7 14.87,-11.6 33.02,-18.1 51.85,-18.7 243.54,-8 270.56,-77.9 301.83,-158.8 17.71,-45.9 37.78,-97.8 87.44,-137.5 15.74,-12.6 30.06,-22.2 42.69,-30.7 56.38,-37.8 105.06,-70.4 162.78,-693.8 71.41,-771.1 464.3,-1375.7 481,-1401.1 27.07,-41.2 82.41,-52.6 123.57,-25.5 41.15,27.1 52.56,82.4 25.47,123.6"
         style="fill:#62312d;fill-opacity:1;fill-rule:nonzero;stroke:none"
         id="path60" />
      <path
         d="m 6961.51,9071.3 c 0,-100.7 59.69,-182.4 133.32,-182.4 73.63,0 133.32,81.7 133.32,182.4 0,100.8 -59.69,182.5 -133.32,182.5 -73.63,0 -133.32,-81.7 -133.32,-182.5"
         style="fill:#f57385;fill-opacity:1;fill-rule:nonzero;stroke:none"
         id="path62" />
      <path
         d="m 6655.14,9379.1 c 0,-100.7 59.69,-182.4 133.32,-182.4 73.63,0 133.33,81.7 133.33,182.4 0,100.8 -59.7,182.5 -133.33,182.5 -73.63,0 -133.32,-81.7 -133.32,-182.5"
         style="fill:#f57385;fill-opacity:1;fill-rule:nonzero;stroke:none"
         id="path64" />
      <path
         d="m 6185,9379.1 c 0,-100.7 59.69,-182.4 133.32,-182.4 73.63,0 133.32,81.7 133.32,182.4 0,100.8 -59.69,182.5 -133.32,182.5 -73.63,0 -133.32,-81.7 -133.32,-182.5"
         style="fill:#f57385;fill-opacity:1;fill-rule:nonzero;stroke:none"
         id="path66" />
      <path
         d="m 5877.36,9071.3 c 0,-100.7 59.69,-182.4 133.32,-182.4 73.63,0 133.32,81.7 133.32,182.4 0,100.8 -59.69,182.5 -133.32,182.5 -73.63,0 -133.32,-81.7 -133.32,-182.5"
         style="fill:#f57385;fill-opacity:1;fill-rule:nonzero;stroke:none"
         id="path68" />
      <path
         d="m 6144,8660.8 c 0,-176.3 188.51,-214 421.04,-214 232.54,0 421.04,37.7 421.04,214 0,176.4 -188.5,319.3 -421.04,319.3 -232.53,0 -421.04,-142.9 -421.04,-319.3"
         style="fill:#f57385;fill-opacity:1;fill-rule:nonzero;stroke:none"
         id="path70" />
      <path
         d="m 11536,6954.8 c 0,0 396.5,622.5 466.6,1380.4 70.2,757.8 133.4,701.7 238.6,785.9 105.3,84.2 14,301.7 442.1,315.7 0,0 315.8,245.6 596.4,-63.1 0,0 273.7,42.1 386,-294.7 0,0 287.7,-112.3 126.3,-722.8 -161.4,-610.5 -70.2,-1073.6 -315.8,-1866.5"
         style="fill:#f7a447;fill-opacity:1;fill-rule:nonzero;stroke:none"
         id="path72" />
      <path
         d="m 13674.3,7720.8 c 0,0 -665.1,85.9 -633.2,-52.9 31.8,-138.7 600.1,-284.1 600.1,-284.1 l 33.1,337"
         style="fill:#91602a;fill-opacity:1;fill-rule:nonzero;stroke:none"
         id="path74" />
      <path
         d="m 13615.3,7162.6 c 0,0 -245,220.4 -383.8,194.4 -138.8,-26.1 347.5,-391.2 347.5,-391.2"
         style="fill:#91602a;fill-opacity:1;fill-rule:nonzero;stroke:none"
         id="path76" />
      <path
         d="m 11975.9,7925.7 c 0,0 218.1,-56.1 218.1,-130.5 0,-74.4 -285.7,-48.1 -285.7,-48.1 l 67.6,178.6"
         style="fill:#91602a;fill-opacity:1;fill-rule:nonzero;stroke:none"
         id="path78" />
      <path
         d="m 11804.1,7410.2 c 0,0 429.5,-40.4 389.9,-132.5 -39.7,-92.2 -502.3,-26.1 -502.3,-26.1 l 112.4,158.6"
         style="fill:#91602a;fill-opacity:1;fill-rule:nonzero;stroke:none"
         id="path80" />
      <path
         d="m 13738.6,9139.7 c -99.2,257 -297.4,324.6 -423.3,325.5 -244.1,237.3 -524.6,152.6 -662.5,59.6 -310.4,-17.1 -385.3,-143.3 -434.9,-271.6 -10.9,-28.3 -20.4,-52.8 -32.4,-62.5 -9.9,-7.9 -20,-14.6 -30.6,-21.7 -118.6,-79.5 -178.3,-147.8 -241.1,-825.6 -67.3,-727.2 -448.5,-1313.7 -452.4,-1319.5 -27.1,-41.2 -15.7,-96.5 25.5,-123.6 41.2,-27.1 96.5,-15.7 123.6,25.5 16.7,25.4 409.6,630 481,1401.1 57.7,623.4 106.4,656 162.8,693.8 12.6,8.5 26.9,18.1 42.6,30.7 49.7,39.7 69.8,91.7 87.5,137.5 31.3,80.9 58.3,150.8 301.8,158.8 18.8,0.6 37,7.2 51.9,18.7 25.5,19.5 259.1,185.5 475.6,-52.7 20.1,-22.2 50.1,-32.7 79.6,-28.2 19.6,2.5 203.3,18.6 287.7,-234.7 8.9,-26.5 24.8,-45.6 50.9,-54.5 15.9,-8.5 204.7,-122.2 73.8,-617.3 -72.6,-274.7 -95.1,-516.5 -118.8,-772.5 -29.9,-321.5 -60.7,-653.9 -195.9,-1090.4 -3.5,-11.2 -4.6,-22.8 -3.7,-34.1 71,10 136.7,18.6 207.3,-0.2 -6.9,10 -13.5,19.1 -19.3,26.9 129,431.8 159.6,761.8 189.3,1081.3 23,248.4 44.8,483 113.6,743.4 144.4,546 -49.9,745.8 -139.6,806.3"
         style="fill:#62312d;fill-opacity:1;fill-rule:nonzero;stroke:none"
         id="path82" />
      <path
         d="m 12531.2,8653 c 0,-100.7 -59.7,-182.4 -133.3,-182.4 -73.7,0 -133.4,81.7 -133.4,182.4 0,100.8 59.7,182.5 133.4,182.5 73.6,0 133.3,-81.7 133.3,-182.5"
         style="fill:#f57385;fill-opacity:1;fill-rule:nonzero;stroke:none"
         id="path84" />
      <path
         d="m 12837.6,8960.8 c 0,-100.7 -59.7,-182.4 -133.4,-182.4 -73.6,0 -133.3,81.7 -133.3,182.4 0,100.8 59.7,182.5 133.3,182.5 73.7,0 133.4,-81.7 133.4,-182.5"
         style="fill:#f57385;fill-opacity:1;fill-rule:nonzero;stroke:none"
         id="path86" />
      <path
         d="m 13307.7,8960.8 c 0,-100.7 -59.7,-182.4 -133.3,-182.4 -73.7,0 -133.3,81.7 -133.3,182.4 0,100.8 59.6,182.5 133.3,182.5 73.6,0 133.3,-81.7 133.3,-182.5"
         style="fill:#f57385;fill-opacity:1;fill-rule:nonzero;stroke:none"
         id="path88" />
      <path
         d="m 13615.3,8653 c 0,-100.7 -59.6,-182.4 -133.3,-182.4 -73.6,0 -133.3,81.7 -133.3,182.4 0,100.8 59.7,182.5 133.3,182.5 73.7,0 133.3,-81.7 133.3,-182.5"
         style="fill:#f57385;fill-opacity:1;fill-rule:nonzero;stroke:none"
         id="path90" />
      <path
         d="m 13348.7,8242.5 c 0,-176.3 -188.5,-214 -421,-214 -232.6,0 -421.1,37.7 -421.1,214 0,176.4 188.5,319.3 421.1,319.3 232.5,0 421,-142.9 421,-319.3"
         style="fill:#f57385;fill-opacity:1;fill-rule:nonzero;stroke:none"
         id="path92" />
      <path
         d="m 9959.13,9232.2 c 0,0 -29.73,-500.4 -685.08,-421.1 -634.41,76.8 -481.33,684 -481.33,684 0,0 502.31,5 508.06,59.5 5.75,54.5 298.18,-243.4 298.18,-243.4 l 360.17,-79"
         style="fill:#f57385;fill-opacity:1;fill-rule:nonzero;stroke:none"
         id="path94" />
      <path
         d="m 9409.1,8713.3 c -46.45,0 -95.03,3.1 -145.77,9.2 -215.86,26.2 -374.81,111.5 -472.45,253.7 -159.8,232.7 -87.81,528.2 -84.67,540.7 12.05,47.8 60.56,76.8 108.32,64.7 47.7,-12 76.64,-60.4 64.76,-108.1 -0.82,-3.3 -54.8,-232.2 59.33,-397.2 67.43,-97.6 183.9,-157 346.14,-176.6 199.26,-24.1 352.09,6.8 454.13,92 119.32,99.6 131.11,244.4 131.19,245.8 2.92,49.2 45.15,86.8 94.35,83.8 49.17,-2.9 86.67,-45.2 83.77,-94.4 -0.5,-9 -15.2,-222.1 -194.97,-372.2 -112.66,-94 -261.66,-141.4 -444.13,-141.4"
         style="fill:#62312d;fill-opacity:1;fill-rule:nonzero;stroke:none"
         id="path96" />
      <path
         d="m 9715.92,10083.3 c -28.52,-124.5 -229.24,-314.3 -413.58,-272.1 -184.35,42.2 -282.51,300.4 -253.99,425 28.52,124.5 185.43,122.9 369.78,80.7 184.34,-42.2 326.31,-109 297.79,-233.6"
         style="fill:#62312d;fill-opacity:1;fill-rule:nonzero;stroke:none"
         id="path98" />
      <path
         d="m 9928.67,9162.2 c -205.44,0 -355.44,63.7 -457.45,132.4 -87.18,58.7 -149.03,126.9 -190.12,182.9 -89.85,-76.8 -188.21,-116.3 -293.59,-117.6 -1.73,0 -3.47,0 -5.2,0 -234.72,0 -408.08,195.6 -415.39,204 -32.73,37.5 -28.85,94.4 8.67,127.2 37.45,32.6 94.24,28.8 126.99,-8.5 2.28,-2.5 128.48,-142.4 279.69,-142.4 1.3,0 2.59,0 3.9,0 84.52,1.4 166.03,48.6 242.26,140.5 20.05,24.2 51.2,36.2 82.3,31.7 31.07,-4.5 57.56,-24.9 69.93,-53.8 8.82,-19.9 228.95,-496.6 930.44,-240.8 46.8,17 98.5,-7.1 115.6,-53.8 17,-46.8 -7.1,-98.5 -53.9,-115.6 -170.1,-62 -317.7,-86.2 -444.13,-86.2"
         style="fill:#62312d;fill-opacity:1;fill-rule:nonzero;stroke:none"
         id="path100" />
      <path
         d="m 9297.88,9533 c -30.59,0 -60.41,15.6 -77.32,43.7 -74.78,124.3 3.5,312.3 19.95,348.7 20.49,45.4 73.87,65.6 119.26,45.1 45.32,-20.5 65.5,-73.8 45.11,-119.1 -27.99,-62.7 -46.69,-153.8 -29.83,-181.8 25.66,-42.7 11.87,-98 -30.79,-123.7 -14.54,-8.8 -30.56,-12.9 -46.38,-12.9"
         style="fill:#62312d;fill-opacity:1;fill-rule:nonzero;stroke:none"
         id="path102" />
      <path
         d="m 8872.05,10364.8 c -35.29,0 -68.69,21.1 -82.73,55.8 -9.82,24 -245.34,578.2 -953.53,518.8 -49.04,-4.2 -92.25,32.3 -96.37,81.4 -4.13,49.1 32.34,92.3 81.44,96.4 439.09,36.9 723.78,-135.2 885.29,-286 175.07,-163.5 245.76,-336.6 248.68,-343.9 18.34,-45.7 -3.86,-97.7 -49.59,-116 -10.89,-4.4 -22.13,-6.5 -33.19,-6.5"
         style="fill:#62312d;fill-opacity:1;fill-rule:nonzero;stroke:none"
         id="path104" />
      <path
         d="m 10425.1,10023.9 c -25.7,0 -51.2,11 -68.8,32.4 -31.4,38 -26,94.2 11.9,125.6 25.2,20.8 626.6,504.6 1485.3,69.3 43.9,-22.3 61.5,-76 39.2,-119.9 -22.3,-44 -76,-61.5 -119.9,-39.3 -755.6,383.1 -1285.6,-43.3 -1290.9,-47.6 -16.6,-13.8 -36.8,-20.5 -56.8,-20.5"
         style="fill:#62312d;fill-opacity:1;fill-rule:nonzero;stroke:none"
         id="path106" />
      <path
         d="M 15720,6401.9 H 4280 c -44.19,0 -80,35.9 -80,80 0,44.2 35.81,80 80,80 h 11440 c 44.2,0 80,-35.8 80,-80 0,-44.1 -35.8,-80 -80,-80"
         style="fill:#62312d;fill-opacity:1;fill-rule:nonzero;stroke:none"
         id="path108" />
    </g>
  </g>
</svg>
